<svg width="173" height="77" viewBox="0 0 173 77" fill="none" xmlns="http://www.w3.org/2000/svg">
<path d="M23.1912 46.3825C29.3419 46.3825 35.2407 43.9391 39.5899 39.5899C43.9391 35.2407 46.3825 29.3419 46.3825 23.1912C46.3825 17.0405 43.9391 11.1418 39.5899 6.79256C35.2407 2.44336 29.3419 1.19759e-06 23.1912 0V8.23061C27.159 8.23061 30.9643 9.80682 33.77 12.6125C36.5757 15.4181 38.1519 19.2234 38.1519 23.1912C38.1519 27.159 36.5757 30.9643 33.77 33.77C30.9643 36.5757 27.159 38.1519 23.1912 38.1519L23.1912 46.3825Z" fill="white"/>
<path d="M10.4344 76.532L2.78125 62.8492L3.82064 62.2717C8.30931 59.778 13.815 60.0009 18.0875 62.8492L10.4344 76.532Z" fill="white" stroke="white" stroke-width="0.463825"/>
<path d="M17.3936 13.6851C11.6836 8.98438 3.94268 11.366 1.85547 13.6851V11.9098C1.85547 8.95122 2.20647 5.76357 4.3657 3.74093C5.67071 2.51847 7.07698 1.95314 8.28193 1.75677C9.86234 1.49921 11.5314 1.7862 13.0028 2.41767C17.4825 4.34003 17.8634 10.4635 17.3936 13.6851Z" fill="white" stroke="white" stroke-width="0.463825"/>
<path d="M11.1266 12.2928C5.56072 11.3651 2.08203 14.6116 2.08203 15.0757L2.54767 62.1537C2.54079 61.4579 6.49018 59.3707 11.1266 59.3709V12.2928Z" fill="white" stroke="white" stroke-width="0.463825"/>
<path d="M66.771 60.2439C66.771 61.2319 66.5442 62.139 66.0907 62.965C65.6372 63.7749 64.9407 64.4308 64.0013 64.9329C63.0619 65.4351 61.8957 65.6861 60.5027 65.6861H57.9274V71.8086H53.7729V54.7531H60.5027C61.8633 54.7531 63.0133 54.988 63.9527 55.4577C64.8921 55.9274 65.5967 56.5753 66.0664 57.4013C66.5361 58.2274 66.771 59.1749 66.771 60.2439ZM60.1869 62.3819C60.9805 62.3819 61.5717 62.1956 61.9605 61.8231C62.3492 61.4506 62.5436 60.9242 62.5436 60.2439C62.5436 59.5636 62.3492 59.0372 61.9605 58.6647C61.5717 58.2922 60.9805 58.1059 60.1869 58.1059H57.9274V62.3819H60.1869ZM73.0884 60.5111C73.5743 59.7661 74.1817 59.183 74.9106 58.7619C75.6394 58.3245 76.4493 58.1059 77.3401 58.1059V62.5034H76.1982C75.1616 62.5034 74.3842 62.7301 73.8659 63.1837C73.3476 63.621 73.0884 64.3984 73.0884 65.516V71.8086H68.9339V58.2517H73.0884V60.5111ZM78.4999 65.0058C78.4999 63.6129 78.759 62.39 79.2773 61.3372C79.8118 60.2844 80.5326 59.4745 81.4396 58.9076C82.3467 58.3407 83.359 58.0573 84.4766 58.0573C85.4322 58.0573 86.2664 58.2517 86.979 58.6404C87.7079 59.0291 88.2667 59.5393 88.6554 60.171V58.2517H92.81V71.8086H88.6554V69.8892C88.2505 70.5209 87.6836 71.0311 86.9547 71.4199C86.2421 71.8086 85.4079 72.003 84.4523 72.003C83.3509 72.003 82.3467 71.7195 81.4396 71.1526C80.5326 70.5695 79.8118 69.7516 79.2773 68.6988C78.759 67.6298 78.4999 66.3988 78.4999 65.0058ZM88.6554 65.0301C88.6554 63.9935 88.3639 63.1756 87.7808 62.5763C87.2139 61.977 86.5174 61.6773 85.6914 61.6773C84.8653 61.6773 84.1607 61.977 83.5776 62.5763C83.0107 63.1594 82.7273 63.9692 82.7273 65.0058C82.7273 66.0424 83.0107 66.8685 83.5776 67.484C84.1607 68.0833 84.8653 68.3829 85.6914 68.3829C86.5174 68.3829 87.2139 68.0833 87.7808 67.484C88.3639 66.8847 88.6554 66.0667 88.6554 65.0301ZM94.9895 65.0301C94.9895 63.621 95.273 62.39 95.8399 61.3372C96.423 60.2844 97.2247 59.4745 98.2451 58.9076C99.2818 58.3407 100.464 58.0573 101.792 58.0573C103.493 58.0573 104.91 58.5027 106.044 59.3936C107.194 60.2844 107.947 61.5397 108.304 63.1594H103.882C103.509 62.1228 102.788 61.6044 101.719 61.6044C100.958 61.6044 100.351 61.9041 99.8972 62.5034C99.4437 63.0865 99.217 63.9287 99.217 65.0301C99.217 66.1315 99.4437 66.9819 99.8972 67.5812C100.351 68.1643 100.958 68.4558 101.719 68.4558C102.788 68.4558 103.509 67.9375 103.882 66.9009H108.304C107.947 68.4882 107.194 69.7354 106.044 70.6424C104.894 71.5494 103.477 72.003 101.792 72.003C100.464 72.003 99.2818 71.7195 98.2451 71.1526C97.2247 70.5857 96.423 69.7759 95.8399 68.7231C95.273 67.6702 94.9895 66.4393 94.9895 65.0301ZM118.082 68.2857V71.8086H115.968C114.462 71.8086 113.287 71.4442 112.445 70.7153C111.603 69.9702 111.182 68.7635 111.182 67.0953V61.7016H109.53V58.2517H111.182V54.9475H115.336V58.2517H118.057V61.7016H115.336V67.1438C115.336 67.5488 115.434 67.8403 115.628 68.0185C115.822 68.1967 116.146 68.2857 116.6 68.2857H118.082ZM122.485 56.8425C121.756 56.8425 121.157 56.632 120.687 56.2108C120.234 55.7735 120.007 55.239 120.007 54.6073C120.007 53.9594 120.234 53.4249 120.687 53.0038C121.157 52.5665 121.756 52.3478 122.485 52.3478C123.198 52.3478 123.781 52.5665 124.235 53.0038C124.704 53.4249 124.939 53.9594 124.939 54.6073C124.939 55.239 124.704 55.7735 124.235 56.2108C123.781 56.632 123.198 56.8425 122.485 56.8425ZM124.55 58.2517V71.8086H120.396V58.2517H124.55ZM133.659 67.9213L136.599 58.2517H141.021L136.21 71.8086H131.084L126.274 58.2517H130.72L133.659 67.9213ZM148.941 72.003C147.613 72.003 146.414 71.7195 145.345 71.1526C144.292 70.5857 143.458 69.7759 142.843 68.7231C142.243 67.6702 141.944 66.4393 141.944 65.0301C141.944 63.6372 142.251 62.4143 142.867 61.3615C143.482 60.2925 144.325 59.4745 145.394 58.9076C146.463 58.3407 147.661 58.0573 148.989 58.0573C150.317 58.0573 151.516 58.3407 152.585 58.9076C153.654 59.4745 154.496 60.2925 155.112 61.3615C155.727 62.4143 156.035 63.6372 156.035 65.0301C156.035 66.4231 155.719 67.654 155.088 68.7231C154.472 69.7759 153.622 70.5857 152.536 71.1526C151.467 71.7195 150.269 72.003 148.941 72.003ZM148.941 68.4072C149.734 68.4072 150.407 68.1157 150.957 67.5326C151.524 66.9495 151.808 66.1153 151.808 65.0301C151.808 63.9449 151.532 63.1108 150.982 62.5277C150.447 61.9446 149.783 61.653 148.989 61.653C148.179 61.653 147.507 61.9446 146.973 62.5277C146.438 63.0946 146.171 63.9287 146.171 65.0301C146.171 66.1153 146.43 66.9495 146.948 67.5326C147.483 68.1157 148.147 68.4072 148.941 68.4072ZM164.41 72.003C163.082 72.003 161.883 71.7195 160.814 71.1526C159.762 70.5857 158.927 69.7759 158.312 68.7231C157.713 67.6702 157.413 66.4393 157.413 65.0301C157.413 63.6372 157.721 62.4143 158.336 61.3615C158.952 60.2925 159.794 59.4745 160.863 58.9076C161.932 58.3407 163.131 58.0573 164.459 58.0573C165.787 58.0573 166.986 58.3407 168.055 58.9076C169.124 59.4745 169.966 60.2925 170.581 61.3615C171.197 62.4143 171.504 63.6372 171.504 65.0301C171.504 66.4231 171.189 67.654 170.557 68.7231C169.941 69.7759 169.091 70.5857 168.006 71.1526C166.937 71.7195 165.738 72.003 164.41 72.003ZM164.41 68.4072C165.204 68.4072 165.876 68.1157 166.427 67.5326C166.994 66.9495 167.277 66.1153 167.277 65.0301C167.277 63.9449 167.002 63.1108 166.451 62.5277C165.917 61.9446 165.252 61.653 164.459 61.653C163.649 61.653 162.977 61.9446 162.442 62.5277C161.908 63.0946 161.64 63.9287 161.64 65.0301C161.64 66.1153 161.9 66.9495 162.418 67.5326C162.952 68.1157 163.617 68.4072 164.41 68.4072Z" fill="white"/>
</svg>
